# xmcd
#
# Track frame offsets: 
#        150
#        2972
#        20513
#        40962
#        55171
#        77612
#        91203
#        108218
#        139604
#        166532
#        193707
#        210001
#        229627
#        243459
#        253554
#
# Disc length: 3665 seconds
#
# Revision: 0
# Processed by: cddbd v1.5.2PL0 Copyright (c) Steve Scherf et al.
# Submitted via: ExactAudioCopyFreeDBPlugin 1.0
#
DISCID=ad0e4f0f
DTITLE=Beza Worship - It Is Time
DYEAR=2009
DGENRE=Christian Rap
TTITLE0=Prelude (A Prayer for Africa)
TTITLE1=We Believe (Declaration Song)
TTITLE2=Arise
TTITLE3=Sing Unto The Lord
TTITLE4=Beautiful
TTITLE5=Interlude (A Deeper Call)
TTITLE6=Here I Am Now
TTITLE7=You Are Beautiful
TTITLE8=From My Heart
TTITLE9=I Will Sing Praises
TTITLE10=One Moment
TTITLE11=Your Love
TTITLE12=Your Love Is So Amazing
TTITLE13=Benediction
TTITLE14=Love
EXTD=
EXTT0=
EXTT1=
EXTT2=
EXTT3=
EXTT4=
EXTT5=
EXTT6=
EXTT7=
EXTT8=
EXTT9=
EXTT10=
EXTT11=
EXTT12=
EXTT13=
EXTT14=
PLAYORDER=
